<svg xmlns="http://www.w3.org/2000/svg" viewBox="0 0 1600 520" fill="none">
  <defs>
    <linearGradient id="mtnFar" x1="0" y1="0" x2="0" y2="1">
      <stop offset="0%" stop-color="#b9d3ef" stop-opacity="0.4" />
      <stop offset="100%" stop-color="#6f9dcd" stop-opacity="0.12" />
    </linearGradient>
    <linearGradient id="mtnNear" x1="0" y1="0" x2="0" y2="1">
      <stop offset="0%" stop-color="#9dc0e8" stop-opacity="0.55" />
      <stop offset="100%" stop-color="#4d7cb2" stop-opacity="0.22" />
    </linearGradient>
    <linearGradient id="wallLit" x1="0" y1="0" x2="1" y2="0.15">
      <stop offset="0%" stop-color="#6b5136" />
      <stop offset="55%" stop-color="#3c2c1e" />
      <stop offset="100%" stop-color="#1c140d" />
    </linearGradient>
    <linearGradient id="wallShade" x1="0" y1="0" x2="1" y2="0.15">
      <stop offset="0%" stop-color="#4a3927" />
      <stop offset="60%" stop-color="#261b12" />
      <stop offset="100%" stop-color="#120c08" />
    </linearGradient>
    <linearGradient id="towerTall" x1="0" y1="0" x2="1" y2="0.1">
      <stop offset="0%" stop-color="#7a5c3c" />
      <stop offset="45%" stop-color="#3f2e1e" />
      <stop offset="100%" stop-color="#180f09" />
    </linearGradient>
    <radialGradient id="amberGlow" cx="50%" cy="50%" r="50%">
      <stop offset="0%" stop-color="#ffdfab" stop-opacity="0.95" />
      <stop offset="60%" stop-color="#f6b56a" stop-opacity="0.5" />
      <stop offset="100%" stop-color="#f6b56a" stop-opacity="0" />
    </radialGradient>
    <radialGradient id="baseGlow" cx="50%" cy="50%" r="50%">
      <stop offset="0%" stop-color="#e79a4f" stop-opacity="0.35" />
      <stop offset="100%" stop-color="#e79a4f" stop-opacity="0" />
    </radialGradient>
    <linearGradient id="glassA" x1="0" y1="0" x2="1" y2="0">
      <stop offset="0%" stop-color="#3f6f9e" />
      <stop offset="18%" stop-color="#274c73" />
      <stop offset="100%" stop-color="#0c1c33" />
    </linearGradient>
    <linearGradient id="glassB" x1="0" y1="0" x2="1" y2="0">
      <stop offset="0%" stop-color="#4a82ad" />
      <stop offset="20%" stop-color="#2d5b85" />
      <stop offset="100%" stop-color="#0e2038" />
    </linearGradient>
    <linearGradient id="glassC" x1="0" y1="0" x2="1" y2="0">
      <stop offset="0%" stop-color="#356089" />
      <stop offset="20%" stop-color="#20456b" />
      <stop offset="100%" stop-color="#0a1a2e" />
    </linearGradient>
    <radialGradient id="cyanGlow" cx="50%" cy="50%" r="50%">
      <stop offset="0%" stop-color="#dff1ff" stop-opacity="0.85" />
      <stop offset="100%" stop-color="#dff1ff" stop-opacity="0" />
    </radialGradient>
    <linearGradient id="groundFade" x1="0" y1="0" x2="0" y2="1">
      <stop offset="0%" stop-color="#050a14" stop-opacity="0" />
      <stop offset="100%" stop-color="#020408" stop-opacity="0.9" />
    </linearGradient>
    <linearGradient id="horizonHaze" x1="0" y1="0" x2="0" y2="1">
      <stop offset="0%" stop-color="#e8ad6d" stop-opacity="0" />
      <stop offset="100%" stop-color="#e8ad6d" stop-opacity="0.16" />
    </linearGradient>

    <filter id="glowSm" x="-100%" y="-100%" width="300%" height="300%">
      <feGaussianBlur stdDeviation="3.2" result="b" />
      <feMerge>
        <feMergeNode in="b" />
        <feMergeNode in="SourceGraphic" />
      </feMerge>
    </filter>
    <filter id="glowLg" x="-100%" y="-100%" width="300%" height="300%">
      <feGaussianBlur stdDeviation="10" result="b" />
      <feMerge>
        <feMergeNode in="b" />
      </feMerge>
    </filter>
    <filter id="mtnBlurFar"><feGaussianBlur stdDeviation="5" /></filter>
    <filter id="mtnBlurNear"><feGaussianBlur stdDeviation="2.4" /></filter>
    <filter id="softEdge"><feGaussianBlur stdDeviation="0.5" /></filter>
    <filter id="grain" x="0" y="0" width="100%" height="100%">
      <feTurbulence type="fractalNoise" baseFrequency="0.9" numOctaves="2" stitchTiles="stitch" result="n" />
      <feColorMatrix in="n" type="matrix" values="0 0 0 0 1  0 0 0 0 1  0 0 0 0 1  0 0 0 0.05 0" />
    </filter>

    <g id="win">
      <rect x="-3.5" y="-5" width="7" height="10" fill="#eaf5ff" opacity="0.55" />
    </g>
    <g id="winGlow">
      <rect x="-4" y="-6" width="8" height="12" fill="url(#cyanGlow)" filter="url(#glowSm)" />
    </g>
  </defs>

  <!-- ============ distant sierra ============ -->
  <path filter="url(#mtnBlurFar)" fill="url(#mtnFar)"
        d="M0,300 L90,205 L160,250 L230,160 L310,225 L380,175 L460,240 L540,185 L620,245 L700,195 L790,255 L900,215 L1000,260 L1600,270 L1600,520 L0,520 Z" />
  <path filter="url(#mtnBlurFar)" stroke="#eef6ff" stroke-opacity="0.5" stroke-width="4" stroke-linecap="round" fill="none"
        d="M160,250 L182,232 L204,246 M310,225 L334,208 L356,222 M540,185 L566,166 L590,182" />

  <path filter="url(#mtnBlurNear)" fill="url(#mtnNear)"
        d="M0,340 L70,270 L130,305 L190,250 L260,300 L330,260 L410,310 L480,265 L560,315 L900,315 L900,520 L0,520 Z" />

  <rect x="0" y="330" width="900" height="90" fill="url(#horizonHaze)" filter="url(#mtnBlurNear)" />

  <!-- ============ ALHAMBRA (left) ============ -->
  <g filter="url(#softEdge)">
    <!-- rock outcrop -->
    <path fill="#0c0805" d="M0,440 C40,410 70,430 110,405 C150,382 190,412 230,392 C270,372 310,398 350,382
      C390,368 430,392 470,378 C510,366 550,388 590,372 C620,362 650,378 680,400 L700,520 L0,520 Z" />

    <!-- ambient warm ground glow -->
    <ellipse cx="330" cy="420" rx="330" ry="90" fill="url(#baseGlow)" />

    <!-- long curtain wall -->
    <rect x="70" y="318" width="270" height="102" fill="url(#wallShade)" />
    <g fill="#0c0805">
      <rect x="70" y="308" width="15" height="12" /><rect x="95" y="308" width="15" height="12" />
      <rect x="120" y="308" width="15" height="12" /><rect x="145" y="308" width="15" height="12" />
      <rect x="170" y="308" width="15" height="12" /><rect x="195" y="308" width="15" height="12" />
      <rect x="220" y="308" width="15" height="12" /><rect x="245" y="308" width="15" height="12" />
      <rect x="270" y="308" width="15" height="12" /><rect x="295" y="308" width="15" height="12" />
      <rect x="320" y="308" width="15" height="12" />
    </g>
    <rect x="72" y="318" width="6" height="102" fill="#8a6a45" opacity="0.28" />
    <path d="M110,352 a11,15 0 0 1 22,0 v26 h-22 Z" fill="url(#amberGlow)" filter="url(#glowSm)" />
    <path d="M170,352 a11,15 0 0 1 22,0 v26 h-22 Z" fill="url(#amberGlow)" opacity="0.6" filter="url(#glowSm)" />
    <path d="M230,352 a11,15 0 0 1 22,0 v26 h-22 Z" fill="url(#amberGlow)" filter="url(#glowSm)" />
    <path d="M290,352 a11,15 0 0 1 22,0 v26 h-22 Z" fill="url(#amberGlow)" opacity="0.55" filter="url(#glowSm)" />

    <!-- Torre de la Vela -->
    <rect x="10" y="300" width="58" height="120" fill="url(#wallLit)" />
    <path d="M10,300 L39,273 L68,300 Z" fill="#2a1d13" />
    <rect x="12" y="300" width="7" height="120" fill="#8a6a45" opacity="0.3" />
    <g fill="#0c0805">
      <rect x="6" y="292" width="9" height="12" /><rect x="21" y="292" width="9" height="12" />
      <rect x="36" y="292" width="9" height="12" /><rect x="51" y="292" width="9" height="12" />
    </g>
    <rect x="24" y="322" width="9" height="15" fill="url(#amberGlow)" filter="url(#glowSm)" />
    <rect x="42" y="322" width="9" height="15" fill="url(#amberGlow)" opacity="0.5" filter="url(#glowSm)" />
    <rect x="24" y="364" width="9" height="15" fill="url(#amberGlow)" opacity="0.6" filter="url(#glowSm)" />
    <rect x="42" y="364" width="9" height="15" fill="url(#amberGlow)" filter="url(#glowSm)" />

    <!-- Torre de Comares (tallest, center) -->
    <rect x="386" y="290" width="82" height="130" fill="url(#towerTall)" />
    <rect x="389" y="290" width="9" height="130" fill="#9c7a4e" opacity="0.32" />
    <g fill="#0c0805">
      <rect x="386" y="280" width="14" height="14" /><rect x="410" y="280" width="14" height="14" />
      <rect x="434" y="280" width="14" height="14" /><rect x="454" y="280" width="14" height="14" />
    </g>
    <rect x="406" y="311" width="14" height="22" fill="url(#amberGlow)" filter="url(#glowSm)" />
    <rect x="432" y="311" width="14" height="22" fill="url(#amberGlow)" opacity="0.5" filter="url(#glowSm)" />
    <rect x="406" y="349" width="14" height="22" fill="url(#amberGlow)" opacity="0.55" filter="url(#glowSm)" />
    <rect x="432" y="349" width="14" height="22" fill="url(#amberGlow)" filter="url(#glowSm)" />

    <!-- Palacios Nazaríes arcade -->
    <rect x="468" y="340" width="196" height="80" fill="url(#wallShade)" />
    <g fill="#0c0805">
      <rect x="468" y="330" width="15" height="12" /><rect x="493" y="330" width="15" height="12" />
      <rect x="518" y="330" width="15" height="12" /><rect x="543" y="330" width="15" height="12" />
      <rect x="568" y="330" width="15" height="12" /><rect x="593" y="330" width="15" height="12" />
      <rect x="618" y="330" width="15" height="12" /><rect x="640" y="330" width="15" height="12" />
    </g>
    <path d="M492,378 a13,17 0 0 1 26,0 v22 h-26 Z" fill="url(#amberGlow)" filter="url(#glowSm)" />
    <path d="M536,378 a13,17 0 0 1 26,0 v22 h-26 Z" fill="url(#amberGlow)" opacity="0.55" filter="url(#glowSm)" />
    <path d="M580,378 a13,17 0 0 1 26,0 v22 h-26 Z" fill="url(#amberGlow)" filter="url(#glowSm)" />
    <path d="M624,378 a13,17 0 0 1 26,0 v22 h-26 Z" fill="url(#amberGlow)" opacity="0.6" filter="url(#glowSm)" />

    <!-- closing tower -->
    <rect x="664" y="315" width="46" height="105" fill="url(#wallLit)" />
    <rect x="666" y="315" width="6" height="105" fill="#8a6a45" opacity="0.28" />
    <g fill="#0c0805">
      <rect x="662" y="307" width="10" height="10" /><rect x="680" y="307" width="10" height="10" /><rect x="698" y="307" width="10" height="10" />
    </g>
    <rect x="676" y="345" width="10" height="17" fill="url(#amberGlow)" opacity="0.65" filter="url(#glowSm)" />
    <rect x="676" y="378" width="10" height="17" fill="url(#amberGlow)" filter="url(#glowSm)" />

    <!-- cypress trees -->
    <path d="M714,420 C707,382 722,368 719,332 C732,368 747,382 737,420 Z" fill="#080604" />
    <path d="M742,420 C736,392 748,382 745,354 C755,382 767,392 758,420 Z" fill="#080604" />
  </g>

  <!-- ============ MODERN SKYLINE (right) ============ -->
  <g filter="url(#softEdge)">
    <rect x="700" y="345" width="72" height="120" fill="url(#glassC)" />
    <rect x="778" y="290" width="58" height="175" fill="url(#glassB)" />
    <rect x="842" y="360" width="64" height="105" fill="url(#glassC)" />
    <rect x="912" y="270" width="52" height="195" fill="url(#glassA)" />
    <polygon points="912,270 938,222 964,270" fill="url(#glassA)" />
    <rect x="935" y="188" width="6" height="30" fill="#1b3552" />
    <circle cx="938" cy="184" r="4.5" fill="#ff6a5a" filter="url(#glowSm)" />

    <rect x="972" y="310" width="68" height="155" fill="url(#glassB)" />
    <rect x="1050" y="235" width="48" height="230" fill="url(#glassC)" />
    <rect x="1108" y="265" width="72" height="200" fill="url(#glassA)" />
    <rect x="1190" y="245" width="54" height="220" fill="url(#glassB)" />
    <polygon points="1190,245 1217,195 1244,245" fill="url(#glassB)" />
    <rect x="1214" y="160" width="6" height="26" fill="#1b3552" />
    <circle cx="1217" cy="156" r="4.5" fill="#ff6a5a" filter="url(#glowSm)" />

    <rect x="1254" y="325" width="62" height="140" fill="url(#glassC)" />
    <rect x="1326" y="270" width="48" height="195" fill="url(#glassA)" />
    <rect x="1384" y="335" width="70" height="130" fill="url(#glassB)" />
    <rect x="1464" y="290" width="52" height="175" fill="url(#glassC)" />
    <rect x="1526" y="350" width="62" height="115" fill="url(#glassA)" />

    <!-- rim-light streak per tower -->
    <g fill="#bfe0ff" opacity="0.18">
      <rect x="702" y="345" width="5" height="120" /><rect x="780" y="290" width="5" height="175" />
      <rect x="844" y="360" width="5" height="105" /><rect x="914" y="270" width="5" height="195" />
      <rect x="974" y="310" width="5" height="155" /><rect x="1052" y="235" width="5" height="230" />
      <rect x="1110" y="265" width="5" height="200" /><rect x="1192" y="245" width="5" height="220" />
      <rect x="1256" y="325" width="5" height="140" /><rect x="1328" y="270" width="5" height="195" />
      <rect x="1386" y="335" width="5" height="130" /><rect x="1466" y="290" width="5" height="175" />
      <rect x="1528" y="350" width="5" height="115" />
    </g>

    <!-- floor bands -->
    <g stroke="#0a1830" stroke-opacity="0.5" stroke-width="2">
      <path d="M700,385 h72 M700,415 h72 M700,445 h72" />
      <path d="M778,320 h58 M778,350 h58 M778,380 h58 M778,410 h58 M778,440 h58" />
      <path d="M912,300 h52 M912,330 h52 M912,360 h52 M912,390 h52 M912,420 h52 M912,450 h52" />
      <path d="M1050,265 h48 M1050,295 h48 M1050,325 h48 M1050,355 h48 M1050,385 h48 M1050,415 h48 M1050,445 h48" />
      <path d="M1190,275 h54 M1190,305 h54 M1190,335 h54 M1190,365 h54 M1190,395 h54 M1190,425 h54 M1190,455 h54" />
      <path d="M1326,300 h48 M1326,330 h48 M1326,360 h48 M1326,390 h48 M1326,420 h48 M1326,450 h48" />
    </g>

    <!-- scattered lit windows -->
    <g opacity="0.85">
      <use href="#win" x="726" y="365" /><use href="#win" x="746" y="400" /><use href="#win" x="726" y="435" />
      <use href="#winGlow" x="800" y="315" /><use href="#win" x="820" y="345" /><use href="#win" x="800" y="375" /><use href="#winGlow" x="820" y="405" /><use href="#win" x="800" y="435" />
      <use href="#win" x="865" y="390" /><use href="#winGlow" x="885" y="420" />
      <use href="#win" x="930" y="305" /><use href="#winGlow" x="948" y="335" /><use href="#win" x="930" y="365" /><use href="#win" x="948" y="395" /><use href="#winGlow" x="930" y="425" />
      <use href="#winGlow" x="998" y="335" /><use href="#win" x="1018" y="365" /><use href="#win" x="998" y="395" /><use href="#winGlow" x="1018" y="425" />
      <use href="#win" x="1068" y="265" /><use href="#win" x="1086" y="295" /><use href="#winGlow" x="1068" y="325" /><use href="#win" x="1086" y="355" /><use href="#win" x="1068" y="385" /><use href="#winGlow" x="1086" y="415" /><use href="#win" x="1068" y="445" />
      <use href="#win" x="1130" y="300" /><use href="#winGlow" x="1150" y="330" /><use href="#win" x="1130" y="360" /><use href="#win" x="1150" y="390" /><use href="#winGlow" x="1130" y="420" />
      <use href="#winGlow" x="1210" y="280" /><use href="#win" x="1228" y="310" /><use href="#win" x="1210" y="340" /><use href="#winGlow" x="1228" y="370" /><use href="#win" x="1210" y="400" /><use href="#win" x="1228" y="430" />
      <use href="#win" x="1276" y="360" /><use href="#winGlow" x="1294" y="395" /><use href="#win" x="1276" y="430" />
      <use href="#winGlow" x="1344" y="305" /><use href="#win" x="1362" y="335" /><use href="#win" x="1344" y="365" /><use href="#winGlow" x="1362" y="395" /><use href="#win" x="1344" y="425" />
      <use href="#win" x="1406" y="370" /><use href="#winGlow" x="1426" y="400" /><use href="#win" x="1406" y="430" />
      <use href="#winGlow" x="1484" y="325" /><use href="#win" x="1502" y="355" /><use href="#win" x="1484" y="385" /><use href="#winGlow" x="1502" y="415" />
      <use href="#win" x="1546" y="385" /><use href="#winGlow" x="1566" y="415" /><use href="#win" x="1546" y="445" />
    </g>
  </g>

  <!-- foreground depth fade -->
  <rect x="0" y="420" width="1600" height="100" fill="url(#groundFade)" />

  <!-- painterly grain -->
  <rect x="0" y="0" width="1600" height="520" filter="url(#grain)" opacity="0.5" style="mix-blend-mode:overlay" />
</svg>
